<svg width="18" height="20" viewBox="0 0 18 20" fill="none" xmlns="http://www.w3.org/2000/svg">
<path d="M14.443 18.921C13.3875 19.9442 12.235 19.7826 11.1256 19.2979C9.9516 18.8025 8.87453 18.7809 7.63589 19.2979C6.0849 19.9657 5.26632 19.7719 4.34003 18.921C-0.916103 13.5033 -0.140607 5.25286 5.8264 4.95128C7.28045 5.02668 8.29291 5.74832 9.1438 5.81294C10.4147 5.55445 11.6318 4.81126 12.989 4.9082C14.6153 5.03745 15.8432 5.68369 16.651 6.84694C13.2905 8.86107 14.0876 13.2879 17.168 14.5265C16.5541 16.1421 15.757 17.747 14.4322 18.9317L14.443 18.921ZM9.03609 4.88666C8.87453 2.48478 10.824 0.502956 13.0644 0.309082C13.3767 3.08794 10.544 5.15593 9.03609 4.88666Z" fill="#616161"/>
</svg>
