<svg width="21" height="22" viewBox="0 0 21 22" fill="none" xmlns="http://www.w3.org/2000/svg">
<path d="M19.6292 10.3582H18.9716V10.0294C18.9712 9.76789 18.8672 9.5172 18.6822 9.33229C18.4973 9.14738 18.2466 9.04333 17.9851 9.04297H13.3804C13.1189 9.04333 12.8682 9.14738 12.6833 9.33229C12.4984 9.5172 12.3943 9.76789 12.394 10.0294V10.3582H3.1831V3.77508C3.19407 3.2848 3.38724 2.81619 3.72494 2.4606C4.06265 2.10501 4.52068 1.88794 5.00974 1.85171C5.4988 1.81549 5.98381 1.9627 6.37023 2.26465C6.75664 2.5666 7.01674 3.00164 7.09983 3.48495C6.64654 3.56776 6.23645 3.80641 5.94052 4.15961C5.64459 4.51281 5.48142 4.95835 5.47926 5.41914V5.74795C5.47926 5.83515 5.5139 5.91879 5.57556 5.98045C5.63723 6.04212 5.72086 6.07676 5.80807 6.07676H9.10447C9.19168 6.07676 9.27531 6.04212 9.33698 5.98045C9.39864 5.91879 9.43328 5.83515 9.43328 5.74795V5.42466C9.43278 4.95626 9.26576 4.5033 8.96205 4.1467C8.65835 3.79011 8.23775 3.5531 7.77541 3.47804C7.73529 2.78186 7.42025 2.13013 6.8996 1.66622C6.37896 1.20232 5.69535 0.964237 4.99916 1.00436C4.30298 1.04448 3.65125 1.35952 3.18734 1.88017C2.72344 2.40081 2.48536 3.08442 2.52548 3.7806V10.3582H1.86786C1.63491 10.3574 1.4092 10.4391 1.23081 10.5889C1.05243 10.7388 0.932909 10.947 0.893484 11.1765C0.854059 11.4061 0.897278 11.6423 1.01547 11.843C1.13365 12.0438 1.31916 12.1961 1.53905 12.2731V14.9657C1.54104 16.1301 1.98384 17.2506 2.77841 18.1018C3.57297 18.953 4.66035 19.4718 5.82188 19.5539V19.8993C5.81324 20.0339 5.8323 20.1689 5.87791 20.2959C5.92351 20.4229 5.99468 20.5391 6.08701 20.6375C6.17934 20.7359 6.29088 20.8143 6.41471 20.8679C6.53855 20.9214 6.67206 20.949 6.80698 20.9489C6.94191 20.9488 7.07537 20.921 7.19914 20.8673C7.3229 20.8136 7.43432 20.735 7.52652 20.6365C7.61871 20.538 7.68971 20.4216 7.73514 20.2946C7.78056 20.1675 7.79944 20.0325 7.79061 19.8979V19.5691H13.7092V19.8979C13.7092 20.1595 13.8131 20.4104 13.9981 20.5954C14.1831 20.7804 14.434 20.8843 14.6956 20.8843C14.9573 20.8843 15.2082 20.7804 15.3932 20.5954C15.5782 20.4104 15.6821 20.1595 15.6821 19.8979V19.5525C16.8421 19.4688 17.9276 18.9495 18.7207 18.0987C19.5138 17.248 19.9558 16.1288 19.958 14.9657V12.2717C20.1786 12.1955 20.3649 12.0434 20.4837 11.8426C20.6025 11.6418 20.646 11.4052 20.6065 11.1753C20.5669 10.9453 20.447 10.7369 20.2679 10.5872C20.0889 10.4375 19.8625 10.3564 19.6292 10.3582ZM8.77566 5.42466H6.15069C6.17234 5.09129 6.32003 4.77864 6.56379 4.5502C6.80755 4.32175 7.1291 4.19463 7.46318 4.19463C7.79725 4.19463 8.11881 4.32175 8.36257 4.5502C8.60632 4.77864 8.75402 5.09129 8.77566 5.42466ZM17.6563 10.3582V10.0294C17.6563 9.94219 17.691 9.85856 17.7526 9.7969C17.8143 9.73523 17.8979 9.70059 17.9851 9.70059C18.0723 9.70059 18.156 9.73523 18.2176 9.7969C18.2793 9.85856 18.3139 9.94219 18.3139 10.0294V10.3582H17.6563ZM13.0516 10.0294C13.0516 9.94219 13.0862 9.85856 13.1479 9.7969C13.2096 9.73523 13.2932 9.70059 13.3804 9.70059H17.0595C17.0203 9.80583 16.9997 9.9171 16.9987 10.0294V13.6477H14.038C13.9508 13.6477 13.8672 13.6823 13.8055 13.744C13.7439 13.8057 13.7092 13.8893 13.7092 13.9765C13.7092 14.0637 13.7439 14.1474 13.8055 14.209C13.8672 14.2707 13.9508 14.3053 14.038 14.3053H16.9987V14.9657H13.0516V10.0294ZM7.13022 19.8979C7.13022 19.9851 7.09558 20.0687 7.03391 20.1304C6.97225 20.1921 6.88862 20.2267 6.80141 20.2267C6.7142 20.2267 6.63057 20.1921 6.5689 20.1304C6.50724 20.0687 6.4726 19.9851 6.4726 19.8979V19.5691H7.13022V19.8979ZM15.0245 19.8979C15.0245 19.9411 15.016 19.9838 14.9994 20.0237C14.9829 20.0636 14.9587 20.0999 14.9281 20.1304C14.8976 20.1609 14.8614 20.1851 14.8215 20.2017C14.7816 20.2182 14.7388 20.2267 14.6956 20.2267C14.6525 20.2267 14.6097 20.2182 14.5698 20.2017C14.5299 20.1851 14.4937 20.1609 14.4631 20.1304C14.4326 20.0999 14.4084 20.0636 14.3919 20.0237C14.3753 19.9838 14.3668 19.9411 14.3668 19.8979V19.5691H15.0245V19.8979ZM15.3533 18.9115H6.14379C5.09752 18.9104 4.0944 18.4943 3.35445 17.7546C2.6145 17.015 2.19813 16.012 2.19667 14.9657V12.3408H10.7485C10.8357 12.3408 10.9194 12.3061 10.981 12.2444C11.0427 12.1828 11.0773 12.0991 11.0773 12.0119C11.0773 11.9247 11.0427 11.8411 10.981 11.7794C10.9194 11.7178 10.8357 11.6831 10.7485 11.6831H1.86786C1.8239 11.6832 1.78038 11.6744 1.73999 11.657C1.69959 11.6397 1.66318 11.6142 1.63299 11.5823C1.60185 11.5515 1.57742 11.5147 1.56125 11.474C1.54507 11.4333 1.53752 11.3898 1.53905 11.346C1.53905 11.2588 1.57369 11.1752 1.63535 11.1135C1.69702 11.0519 1.78065 11.0172 1.86786 11.0172H12.394V14.9657C12.3944 15.0807 12.4249 15.1935 12.4827 15.2929C12.5404 15.3923 12.6232 15.4748 12.7228 15.5322V16.281C12.7228 16.3241 12.7313 16.3669 12.7478 16.4068C12.7643 16.4467 12.7885 16.4829 12.8191 16.5135C12.8496 16.544 12.8859 16.5682 12.9258 16.5847C12.9657 16.6013 13.0084 16.6098 13.0516 16.6098C13.0948 16.6098 13.1375 16.6013 13.1774 16.5847C13.2173 16.5682 13.2536 16.544 13.2841 16.5135C13.3146 16.4829 13.3388 16.4467 13.3554 16.4068C13.3719 16.3669 13.3804 16.3241 13.3804 16.281V15.6233H14.038V16.281C14.038 16.3241 14.0465 16.3669 14.0631 16.4068C14.0796 16.4467 14.1038 16.4829 14.1343 16.5135C14.1649 16.544 14.2011 16.5682 14.241 16.5847C14.2809 16.6013 14.3237 16.6098 14.3668 16.6098C14.41 16.6098 14.4528 16.6013 14.4927 16.5847C14.5326 16.5682 14.5688 16.544 14.5993 16.5135C14.6299 16.4829 14.6541 16.4467 14.6706 16.4068C14.6871 16.3669 14.6956 16.3241 14.6956 16.281V15.6233H15.3533V16.281C15.3533 16.3682 15.3879 16.4518 15.4496 16.5135C15.5112 16.5751 15.5949 16.6098 15.6821 16.6098C15.7693 16.6098 15.8529 16.5751 15.9146 16.5135C15.9762 16.4518 16.0109 16.3682 16.0109 16.281V15.6233H16.6685V16.281C16.6685 16.3241 16.677 16.3669 16.6935 16.4068C16.7101 16.4467 16.7343 16.4829 16.7648 16.5135C16.7954 16.544 16.8316 16.5682 16.8715 16.5847C16.9114 16.6013 16.9541 16.6098 16.9973 16.6098C17.0405 16.6098 17.0833 16.6013 17.1232 16.5847C17.163 16.5682 17.1993 16.544 17.2298 16.5135C17.2604 16.4829 17.2846 16.4467 17.3011 16.4068C17.3176 16.3669 17.3261 16.3241 17.3261 16.281V15.5322C17.4258 15.4749 17.5087 15.3924 17.5664 15.293C17.6242 15.1936 17.6547 15.0807 17.6549 14.9657V12.3408H19.299V14.9657C19.2979 16.0122 18.8817 17.0155 18.1417 17.7555C17.4017 18.4955 16.3984 18.9117 15.3519 18.9128L15.3533 18.9115ZM19.6361 11.6748H17.6563V11.0172H19.6292C19.6732 11.0171 19.7167 11.026 19.7571 11.0433C19.7975 11.0607 19.8339 11.0861 19.8641 11.1181C19.8942 11.1478 19.918 11.1834 19.9342 11.2225C19.9503 11.2617 19.9584 11.3037 19.958 11.346C19.958 11.4332 19.9234 11.5169 19.8617 11.5785C19.8 11.6402 19.7164 11.6748 19.6292 11.6748H19.6361Z" fill="#006EFF" stroke="#006EFF" stroke-width="0.2"/>
<path d="M7.78909 7.0632C7.78909 6.97599 7.75446 6.89236 7.69279 6.83069C7.63113 6.76903 7.5475 6.73438 7.46029 6.73438C7.37308 6.73438 7.28945 6.76903 7.22779 6.83069C7.16612 6.89236 7.13147 6.97599 7.13147 7.0632V7.39199C7.13147 7.4792 7.16612 7.56285 7.22779 7.62452C7.28945 7.68618 7.37308 7.72082 7.46029 7.72082C7.5475 7.72082 7.63113 7.68618 7.69279 7.62452C7.75446 7.56285 7.78909 7.4792 7.78909 7.39199V7.0632Z" fill="#006EFF" stroke="#006EFF" stroke-width="0.2"/>
<path d="M7.46053 8.38574C7.37333 8.38574 7.2897 8.4204 7.22803 8.48206C7.16637 8.54373 7.13171 8.62736 7.13171 8.71456V9.04336C7.13171 9.13057 7.16637 9.21422 7.22803 9.27588C7.2897 9.33755 7.37333 9.37218 7.46053 9.37218C7.54774 9.37218 7.63137 9.33755 7.69304 9.27588C7.7547 9.21422 7.78933 9.13057 7.78933 9.04336V8.71456C7.78933 8.62736 7.7547 8.54373 7.69304 8.48206C7.63137 8.4204 7.54774 8.38574 7.46053 8.38574Z" fill="#006EFF" stroke="#006EFF" stroke-width="0.2"/>
<path d="M6.30147 6.46233L6.07074 6.69722C6.03954 6.72785 6.01477 6.76439 5.99786 6.80471C5.98096 6.84503 5.97226 6.88831 5.97229 6.93204C5.97232 6.97576 5.98108 7.01904 5.99803 7.05934C6.01498 7.09965 6.0398 7.13616 6.07103 7.16675C6.10227 7.19735 6.13929 7.22141 6.17994 7.23752C6.22058 7.25363 6.26404 7.26147 6.30775 7.26058C6.35146 7.2597 6.39455 7.25012 6.43451 7.23238C6.47447 7.21464 6.51051 7.1891 6.54048 7.15727L6.77119 6.9224C6.83022 6.85973 6.86232 6.77642 6.86058 6.69034C6.85884 6.60427 6.8234 6.5223 6.7619 6.46206C6.70039 6.40182 6.61772 6.36811 6.53163 6.36816C6.44554 6.36822 6.3629 6.40202 6.30147 6.46233Z" fill="#006EFF" stroke="#006EFF" stroke-width="0.2"/>
<path d="M5.1534 7.63811L4.92268 7.873C4.89148 7.90363 4.8667 7.94017 4.84979 7.98049C4.83288 8.02081 4.82419 8.0641 4.82422 8.10782C4.82425 8.15154 4.83299 8.19482 4.84995 8.23513C4.8669 8.27543 4.89173 8.31194 4.92296 8.34253C4.9542 8.37313 4.99122 8.39719 5.03187 8.4133C5.07251 8.42941 5.11596 8.43725 5.15967 8.43636C5.20338 8.43548 5.24649 8.4259 5.28645 8.40816C5.32641 8.39042 5.36243 8.36488 5.3924 8.33305L5.62312 8.09818C5.68214 8.03551 5.71423 7.9522 5.7125 7.86613C5.71076 7.78005 5.67533 7.69808 5.61383 7.63784C5.55232 7.5776 5.46964 7.54389 5.38355 7.54395C5.29746 7.544 5.21483 7.5778 5.1534 7.63811Z" fill="#006EFF" stroke="#006EFF" stroke-width="0.2"/>
<path d="M8.14984 6.45826C8.11922 6.4888 8.09491 6.52509 8.07833 6.56503C8.06175 6.60498 8.05322 6.64781 8.05322 6.69105C8.05322 6.7343 8.06175 6.77713 8.07833 6.81708C8.09491 6.85702 8.11922 6.89331 8.14984 6.92385L8.38055 7.15871C8.44198 7.21903 8.52462 7.25285 8.61071 7.2529C8.6968 7.25295 8.77947 7.21923 8.84098 7.15899C8.90248 7.09875 8.93792 7.0168 8.93966 6.93072C8.94139 6.84465 8.90929 6.76134 8.85027 6.69866L8.61956 6.4638C8.58902 6.43318 8.55273 6.40887 8.51279 6.39229C8.47284 6.37572 8.43001 6.36719 8.38677 6.36719C8.34352 6.36719 8.30069 6.37572 8.26074 6.39229C8.2208 6.40887 8.18451 6.43318 8.15397 6.4638L8.14984 6.45826Z" fill="#006EFF" stroke="#006EFF" stroke-width="0.2"/>
<path d="M9.29646 8.09818L9.52719 8.33305C9.55717 8.36488 9.59318 8.39042 9.63314 8.40816C9.67311 8.4259 9.71619 8.43548 9.7599 8.43636C9.80362 8.43725 9.84707 8.42941 9.88772 8.4133C9.92836 8.39719 9.96539 8.37313 9.99662 8.34253C10.0279 8.31194 10.0527 8.27543 10.0696 8.23513C10.0866 8.19482 10.0953 8.15154 10.0954 8.10782C10.0954 8.0641 10.0867 8.02081 10.0698 7.98049C10.0529 7.94017 10.0281 7.90363 9.99692 7.873L9.76619 7.63813C9.70475 7.57782 9.62211 7.544 9.53602 7.54395C9.44993 7.54389 9.36726 7.5776 9.30576 7.63784C9.24425 7.69808 9.20884 7.78005 9.2071 7.86613C9.20536 7.9522 9.23744 8.03551 9.29646 8.09818Z" fill="#006EFF" stroke="#006EFF" stroke-width="0.2"/>
</svg>
