<svg width="19" height="18" viewBox="0 0 19 18" fill="none" xmlns="http://www.w3.org/2000/svg">
<g clip-path="url(#clip0_9_8284)">
<path d="M13.3733 3.70844L10.79 1.70844C10.4566 1.37511 9.70663 1.20844 9.20663 1.20844L6.03996 1.20844C5.03996 1.20844 3.95663 1.95844 3.70663 2.95844L1.70663 9.04177C1.28996 10.2084 2.03996 11.2084 3.28996 11.2084L6.62329 11.2084C7.12329 11.2084 7.53996 11.6251 7.45663 12.2084L7.03996 14.8751C6.87329 15.6251 7.37329 16.4584 8.12329 16.7084C8.78996 16.9584 9.62329 16.6251 9.95662 16.1251L13.3733 11.0418" stroke="#323232" stroke-miterlimit="10"/>
<path d="M17.6233 3.70849L17.6233 11.8752C17.6233 13.0418 17.1233 13.4585 15.9566 13.4585L15.1233 13.4585C13.9566 13.4585 13.4566 13.0418 13.4566 11.8752L13.4566 3.70849C13.4566 2.54183 13.9566 2.12516 15.1233 2.12516L15.9566 2.12516C17.1233 2.12516 17.6233 2.54183 17.6233 3.70849Z" stroke="#323232" stroke-linecap="round" stroke-linejoin="round"/>
</g>
<defs>
<clipPath id="clip0_9_8284">
<rect width="18" height="18" fill="white" transform="translate(18.6067 18) rotate(-180)"/>
</clipPath>
</defs>
</svg>
