<svg width="25" height="25" viewBox="0 0 25 25" fill="none" xmlns="http://www.w3.org/2000/svg">
<path d="M21.725 9.97379L15.675 3.92379L16.1 3.49879C16.4834 3.11546 16.9584 2.92779 17.525 2.93579C18.0917 2.94379 18.5667 3.13979 18.95 3.52379L22.175 6.74879C22.5584 7.13213 22.75 7.60313 22.75 8.16179C22.75 8.72046 22.5584 9.19113 22.175 9.57379L21.725 9.97379ZM9.40002 22.3488C9.01669 22.7321 8.54569 22.9238 7.98702 22.9238C7.42836 22.9238 6.95802 22.7321 6.57602 22.3488L3.35002 19.1238C2.96669 18.7405 2.77502 18.2695 2.77502 17.7108C2.77502 17.1521 2.96669 16.6815 3.35002 16.2988L3.75002 15.8988L9.80002 21.9488L9.40002 22.3488ZM13.025 21.6488C12.825 21.8488 12.5917 21.9488 12.325 21.9488C12.0584 21.9488 11.825 21.8488 11.625 21.6488L4.05002 14.0738C3.85002 13.8738 3.75002 13.6405 3.75002 13.3738C3.75002 13.1071 3.85002 12.8738 4.05002 12.6738L5.47502 11.2238C5.67502 11.0238 5.91269 10.9238 6.18802 10.9238C6.46336 10.9238 6.70069 11.0238 6.90002 11.2238L8.47502 12.7988L12.625 8.64879L11.05 7.07379C10.85 6.87379 10.75 6.64046 10.75 6.37379C10.75 6.10713 10.85 5.87379 11.05 5.67379L12.475 4.22379C12.675 4.02379 12.9127 3.92379 13.188 3.92379C13.4634 3.92379 13.7007 4.02379 13.9 4.22379L21.475 11.7988C21.675 11.9988 21.775 12.2365 21.775 12.5118C21.775 12.7871 21.675 13.0245 21.475 13.2238L20.025 14.6488C19.825 14.8488 19.5917 14.9488 19.325 14.9488C19.0584 14.9488 18.825 14.8488 18.625 14.6488L17.05 13.0738L12.9 17.2238L14.475 18.7988C14.675 18.9988 14.775 19.2361 14.775 19.5108C14.775 19.7855 14.675 20.0231 14.475 20.2238L13.025 21.6488Z" fill="#006EFF"/>
</svg>
