<svg width="25" height="25" viewBox="0 0 25 25" fill="none" xmlns="http://www.w3.org/2000/svg">
<path d="M3.13 6.22871V22.4239C3.13 23.1295 3.72376 23.9887 4.45481 23.9887H20.3994C21.1286 23.9887 21.85 23.1295 21.85 22.4239V6.22871H3.13ZM12.4708 19.0812C9.658 19.0812 7.37752 16.8761 7.37752 14.155C7.37752 11.4338 9.658 9.22871 12.4708 9.22871C15.2836 9.22871 17.5641 11.4338 17.5641 14.155C17.5641 16.8766 15.2836 19.0812 12.4708 19.0812ZM20.3994 1.42871H4.45481C3.72376 1.42871 3.13 1.92455 3.13 2.63111V5.26871H21.85V2.63111C21.85 1.92455 21.1286 1.42871 20.3994 1.42871ZM9.37 4.30871H4.09V2.38871H9.37V4.30871ZM18.5601 4.17431C17.9606 4.17431 17.4762 3.70439 17.4762 3.12407C17.4762 2.54471 17.9606 2.07479 18.5601 2.07479C19.1596 2.07479 19.6454 2.54471 19.6454 3.12407C19.6449 3.70391 19.1596 4.17431 18.5601 4.17431Z" fill="#006EFF"/>
</svg>
