<svg width="19" height="18" viewBox="0 0 19 18" fill="none" xmlns="http://www.w3.org/2000/svg">
<g clip-path="url(#clip0_9_8279)">
<path d="M5.75806 14.2916L8.34139 16.2916C8.67472 16.6249 9.42472 16.7916 9.92472 16.7916H13.0914C14.0914 16.7916 15.1747 16.0416 15.4247 15.0416L17.4247 8.95822C17.8414 7.79156 17.0914 6.79156 15.8414 6.79156H12.5081C12.0081 6.79156 11.5914 6.37489 11.6747 5.79156L12.0914 3.12489C12.2581 2.37489 11.7581 1.54156 11.0081 1.29156C10.3414 1.04156 9.50806 1.37489 9.17472 1.87489L5.75806 6.95822" stroke="#323232" stroke-miterlimit="10"/>
<path d="M1.50806 14.2915V6.12484C1.50806 4.95817 2.00806 4.5415 3.17472 4.5415H4.00806C5.17472 4.5415 5.67472 4.95817 5.67472 6.12484V14.2915C5.67472 15.4582 5.17472 15.8748 4.00806 15.8748H3.17472C2.00806 15.8748 1.50806 15.4582 1.50806 14.2915Z" stroke="#323232" stroke-linecap="round" stroke-linejoin="round"/>
</g>
<defs>
<clipPath id="clip0_9_8279">
<rect width="18" height="18" fill="white" transform="translate(0.524658)"/>
</clipPath>
</defs>
</svg>
