<svg width="25" height="25" viewBox="0 0 25 25" fill="none" xmlns="http://www.w3.org/2000/svg">
<path d="M4.75 12.9487C6.13071 12.9487 7.25 11.8294 7.25 10.4487C7.25 9.06802 6.13071 7.94873 4.75 7.94873C3.36929 7.94873 2.25 9.06802 2.25 10.4487C2.25 11.8294 3.36929 12.9487 4.75 12.9487Z" fill="#006EFF"/>
<path d="M9.25 8.94873C10.6307 8.94873 11.75 7.82944 11.75 6.44873C11.75 5.06802 10.6307 3.94873 9.25 3.94873C7.86929 3.94873 6.75 5.06802 6.75 6.44873C6.75 7.82944 7.86929 8.94873 9.25 8.94873Z" fill="#006EFF"/>
<path d="M15.25 8.94873C16.6307 8.94873 17.75 7.82944 17.75 6.44873C17.75 5.06802 16.6307 3.94873 15.25 3.94873C13.8693 3.94873 12.75 5.06802 12.75 6.44873C12.75 7.82944 13.8693 8.94873 15.25 8.94873Z" fill="#006EFF"/>
<path d="M19.75 12.9487C21.1307 12.9487 22.25 11.8294 22.25 10.4487C22.25 9.06802 21.1307 7.94873 19.75 7.94873C18.3693 7.94873 17.25 9.06802 17.25 10.4487C17.25 11.8294 18.3693 12.9487 19.75 12.9487Z" fill="#006EFF"/>
<path d="M17.59 15.8087C16.72 14.7887 15.99 13.9187 15.11 12.8987C14.65 12.3587 14.06 11.8187 13.36 11.5787C13.25 11.5387 13.14 11.5087 13.03 11.4887C12.78 11.4487 12.51 11.4487 12.25 11.4487C11.99 11.4487 11.72 11.4487 11.46 11.4987C11.35 11.5187 11.24 11.5487 11.13 11.5887C10.43 11.8287 9.85002 12.3687 9.38002 12.9087C8.51002 13.9287 7.78002 14.7987 6.90002 15.8187C5.59002 17.1287 3.98002 18.5787 4.28002 20.6087C4.57002 21.6287 5.30002 22.6387 6.61002 22.9287C7.34002 23.0787 9.67002 22.4887 12.15 22.4887H12.33C14.81 22.4887 17.14 23.0687 17.87 22.9287C19.18 22.6387 19.91 21.6187 20.2 20.6087C20.51 18.5687 18.9 17.1187 17.59 15.8087Z" fill="#006EFF"/>
</svg>
