<svg width="23" height="23" viewBox="0 0 23 23" fill="none" xmlns="http://www.w3.org/2000/svg">
<g clip-path="url(#clip0_9_8529)">
<path d="M15.6144 10.5712C16.0661 10.5724 16.5135 10.484 16.9308 10.3111C17.3482 10.1383 17.727 9.8843 18.0455 9.56398L21.3541 6.25753C21.6158 5.99585 21.6399 5.57003 21.3906 5.29546C21.3281 5.22648 21.2521 5.17092 21.1675 5.13217C21.0828 5.09342 20.9911 5.07228 20.898 5.07003C20.8049 5.06778 20.7123 5.08447 20.6259 5.11908C20.5394 5.1537 20.4609 5.20552 20.3951 5.2714L17.4461 8.21819C17.3471 8.31709 17.2129 8.37264 17.0729 8.37264C16.933 8.37264 16.7988 8.31709 16.6997 8.21819C16.4939 8.0128 16.5051 7.66562 16.7105 7.46023L19.6465 4.52417C19.7124 4.45835 19.7641 4.37986 19.7987 4.29344C19.8333 4.20702 19.8499 4.11449 19.8477 4.02144C19.8454 3.92839 19.8243 3.83677 19.7856 3.75212C19.7469 3.66748 19.6914 3.59157 19.6225 3.52901C19.4981 3.41616 19.3358 3.35407 19.1679 3.35499C18.9775 3.35512 18.795 3.43085 18.6604 3.56554L15.7269 6.49858C15.6279 6.59748 15.4937 6.65303 15.3537 6.65303C15.2138 6.65303 15.0796 6.59748 14.9806 6.49858C14.7752 6.29319 14.7859 5.94601 14.9913 5.74062L17.9274 2.80542C17.9932 2.7396 18.0449 2.66111 18.0795 2.57469C18.1141 2.48827 18.1308 2.39574 18.1285 2.30269C18.1262 2.20964 18.1051 2.11802 18.0664 2.03337C18.0277 1.94873 17.9722 1.87282 17.9033 1.81026C17.7789 1.69741 17.6167 1.63532 17.4487 1.63624C17.2583 1.63647 17.0758 1.71218 16.9412 1.84679L13.6348 5.15323C13.3144 5.47179 13.0605 5.85073 12.8876 6.26813C12.7147 6.68552 12.6263 7.13306 12.6276 7.58484V7.93847C12.6277 8.02888 12.6099 8.11842 12.5753 8.20196C12.5407 8.2855 12.49 8.36139 12.4261 8.4253L10.896 9.95585C10.88 9.97183 10.861 9.98451 10.8402 9.99316C10.8193 10.0018 10.7969 10.0063 10.7744 10.0063C10.7518 10.0063 10.7294 10.0018 10.7085 9.99316C10.6877 9.98451 10.6687 9.97183 10.6527 9.95585L3.20712 2.5098C3.07862 2.38114 2.90438 2.30864 2.72254 2.30816C2.5407 2.30767 2.36608 2.37925 2.23689 2.50722C1.58591 3.15218 1.2383 4.06269 1.2383 5.13991C1.234 6.91882 2.169 8.96413 3.67849 10.4715L7.35017 14.1432C7.87203 14.664 8.57915 14.9565 9.31642 14.9566C9.55146 14.9566 9.78554 14.9266 10.0129 14.8672C10.07 14.8522 10.1288 14.8446 10.1878 14.8444C10.3604 14.8444 10.5266 14.9097 10.6532 15.027L11.1426 15.4791C11.2688 15.608 11.3397 15.7811 11.3402 15.9616V16.1996C11.339 16.7408 11.5517 17.2605 11.9319 17.6455L15.8013 21.5802L15.8051 21.5845C16.2346 22.0139 16.817 22.2551 17.4243 22.2551C18.0317 22.255 18.6141 22.0137 19.0435 21.5843C19.4729 21.1548 19.7141 20.5724 19.714 19.9651C19.714 19.3577 19.4727 18.7753 19.0433 18.3459L13.2433 12.546C13.2274 12.53 13.2147 12.5111 13.206 12.4902C13.1974 12.4694 13.1929 12.447 13.1929 12.4244C13.1929 12.4018 13.1974 12.3795 13.206 12.3586C13.2147 12.3377 13.2274 12.3188 13.2433 12.3028L14.7735 10.7727C14.8373 10.7088 14.9131 10.6581 14.9966 10.6235C15.0801 10.5889 15.1695 10.5711 15.2599 10.5712H15.6144Z" fill="#006EFF"/>
<path d="M9.31645 16.3317C8.21574 16.3294 7.1603 15.8932 6.37911 15.1178L5.78356 14.5223C5.71912 14.458 5.63181 14.4219 5.54079 14.4219C5.44976 14.4219 5.36245 14.458 5.29801 14.5223L1.64567 18.1557C0.994692 18.8067 0.762231 19.7649 1.0845 20.7033C1.10253 20.7562 1.12392 20.8079 1.14852 20.858C1.58207 21.7457 2.4234 22.2614 3.34379 22.2614C3.66032 22.2621 3.97385 22.2001 4.26622 22.0788C4.5586 21.9576 4.82401 21.7795 5.04707 21.555L9.91801 16.6608C9.93852 16.6399 9.95421 16.6148 9.96401 16.5872C9.9738 16.5595 9.97746 16.5301 9.97473 16.501V16.4898C9.97282 16.463 9.9655 16.4369 9.95322 16.413C9.94094 16.3891 9.92395 16.3679 9.90327 16.3508C9.88259 16.3337 9.85866 16.3209 9.83291 16.3132C9.80716 16.3056 9.78013 16.3032 9.75344 16.3063C9.60832 16.3224 9.46246 16.3309 9.31645 16.3317Z" fill="#006EFF"/>
</g>
<defs>
<clipPath id="clip0_9_8529">
<rect width="22" height="22" fill="white" transform="translate(0.25 0.94873)"/>
</clipPath>
</defs>
</svg>
