<svg width="19" height="23" viewBox="0 0 19 23" fill="none" xmlns="http://www.w3.org/2000/svg">
<g clip-path="url(#clip0_9_8552)">
<path d="M12.5 5.07373C13.6391 5.07373 14.5625 4.15033 14.5625 3.01123C14.5625 1.87213 13.6391 0.94873 12.5 0.94873C11.3609 0.94873 10.4375 1.87213 10.4375 3.01123C10.4375 4.15033 11.3609 5.07373 12.5 5.07373ZM5.69762 14.59L5.06168 16.0733H2.1875C1.42824 16.0733 0.8125 16.689 0.8125 17.4483C0.8125 18.2076 1.42824 18.8233 2.1875 18.8233H5.51543C6.34258 18.8233 7.08723 18.3317 7.41078 17.5733L7.78848 16.6916L7.33 16.4209C6.58578 15.9813 6.03836 15.3308 5.69762 14.59ZM17.3125 10.5733H15.4206L14.3008 8.28521C13.7637 7.18736 12.7776 6.38471 11.6462 6.09639L8.59199 5.18803C7.37598 4.89584 6.10969 5.16439 5.1184 5.92451L3.41383 7.23119C2.81098 7.69311 2.69668 8.55592 3.15945 9.15877C3.62223 9.76162 4.48461 9.87463 5.08703 9.41314L6.79246 8.10646C7.12203 7.85338 7.54184 7.76271 7.87828 7.84264L8.50992 8.03041L6.90031 11.7854C6.35805 13.0522 6.84402 14.5359 8.03039 15.2363L11.6819 17.392L10.5015 21.1617C10.2746 21.8861 10.6781 22.6574 11.4026 22.8843C11.5396 22.9272 11.678 22.9479 11.8142 22.9479C12.399 22.9479 12.9413 22.571 13.1256 21.9832L14.4852 17.6408C14.7391 16.7483 14.361 15.7897 13.5553 15.3037L10.9239 13.7508L12.2693 10.3872L13.1402 12.1674C13.484 12.8695 14.211 13.3229 14.9926 13.3229H17.3125C18.0718 13.3229 18.6875 12.7071 18.6875 11.9479C18.6875 11.1886 18.0718 10.5733 17.3125 10.5733Z" fill="#006EFF"/>
</g>
<defs>
<clipPath id="clip0_9_8552">
<rect width="17.875" height="22" fill="white" transform="translate(0.8125 0.94873)"/>
</clipPath>
</defs>
</svg>
