<svg width="21" height="16" viewBox="0 0 21 16" fill="none" xmlns="http://www.w3.org/2000/svg">
<rect x="0.680054" width="20.1399" height="15.1002" rx="7.55009" fill="white"/>
<path fill-rule="evenodd" clip-rule="evenodd" d="M0.680054 1.88752C0.680054 1.38692 0.878917 0.906823 1.2329 0.552844C1.58687 0.198865 2.06697 0 2.56758 0H18.9324C19.433 0 19.9131 0.198865 20.2671 0.552844C20.621 0.906823 20.8199 1.38692 20.8199 1.88752V13.2127C20.8199 13.7133 20.621 14.1934 20.2671 14.5473C19.9131 14.9013 19.433 15.1002 18.9324 15.1002H2.56758C2.06773 15.1002 1.58829 14.9019 1.23443 14.5489C0.88058 14.1958 0.681207 13.7169 0.680054 13.217L0.680054 1.88752ZM2.56758 1.25883C2.40084 1.25883 2.24093 1.32507 2.12302 1.44297C2.00512 1.56087 1.93889 1.72078 1.93889 1.88752V13.2127C1.93889 13.2952 1.95515 13.377 1.98674 13.4532C2.01834 13.5295 2.06465 13.5988 2.12302 13.6572C2.1814 13.7156 2.25071 13.7619 2.32699 13.7935C2.40326 13.8251 2.48501 13.8413 2.56758 13.8413H18.9324C19.0974 13.8398 19.2551 13.7735 19.3717 13.6567C19.4882 13.5399 19.5541 13.382 19.5553 13.217V1.89188C19.5553 1.72514 19.489 1.56523 19.3711 1.44733C19.2532 1.32942 19.0933 1.26319 18.9266 1.26319L2.56758 1.25883Z" fill="#006EFF"/>
<path fill-rule="evenodd" clip-rule="evenodd" d="M3.198 3.14772C3.19781 3.06503 3.21393 2.98313 3.24544 2.90668C3.27695 2.83024 3.32323 2.76076 3.38162 2.70223C3.44002 2.64369 3.50939 2.59726 3.58576 2.56557C3.66214 2.53389 3.74401 2.51758 3.82669 2.51758H7.60173C7.76867 2.51758 7.92876 2.58389 8.0468 2.70193C8.16484 2.81997 8.23115 2.98006 8.23115 3.14699C8.23115 3.31392 8.16484 3.47402 8.0468 3.59206C7.92876 3.7101 7.76867 3.77641 7.60173 3.77641H4.45683V6.92276C4.45683 7.0897 4.39052 7.24979 4.27248 7.36783C4.15444 7.48587 3.99435 7.55218 3.82742 7.55218C3.66048 7.55218 3.50039 7.48587 3.38235 7.36783C3.26431 7.24979 3.198 7.0897 3.198 6.92276V3.14772ZM18.2982 11.9595C18.2982 12.0422 18.2819 12.1241 18.2502 12.2005C18.2185 12.2768 18.1721 12.3462 18.1135 12.4046C18.055 12.463 17.9855 12.5093 17.9091 12.5408C17.8326 12.5723 17.7507 12.5884 17.668 12.5882H13.893C13.7261 12.5882 13.566 12.5219 13.4479 12.4039C13.3299 12.2858 13.2636 12.1257 13.2636 11.9588C13.2636 11.7919 13.3299 11.6318 13.4479 11.5138C13.566 11.3957 13.7261 11.3294 13.893 11.3294H17.0393V8.18305C17.0393 8.01612 17.1057 7.85602 17.2237 7.73798C17.3417 7.61995 17.5018 7.55363 17.6688 7.55363C17.8357 7.55363 17.9958 7.61995 18.1138 7.73798C18.2319 7.85602 18.2982 8.01612 18.2982 8.18305V11.9595Z" fill="#006EFF"/>
</svg>
