<svg width="25" height="25" viewBox="0 0 25 25" fill="none" xmlns="http://www.w3.org/2000/svg">
<g clip-path="url(#clip0_9_8519)">
<path d="M23.77 20.1486C23.2811 20.1485 22.7979 20.0436 22.353 19.8409C21.8943 19.6326 21.3967 19.5239 20.8929 19.5222C20.388 19.5242 19.8893 19.6328 19.4293 19.8409C18.9845 20.0435 18.5014 20.1483 18.0126 20.1483C17.5238 20.1483 17.0407 20.0435 16.5959 19.8409C16.1357 19.6339 15.6374 19.5254 15.1329 19.5222C14.6281 19.5246 14.1294 19.6332 13.6693 19.8409C13.2236 20.0434 12.7398 20.1482 12.2502 20.1482C11.7607 20.1482 11.2768 20.0434 10.8311 19.8409C10.3732 19.6332 9.87662 19.5245 9.37382 19.5222C8.86917 19.5246 8.37067 19.6331 7.91078 19.8409C7.4652 20.0436 6.98139 20.1484 6.4919 20.1484C6.00241 20.1484 5.5186 20.0436 5.07302 19.8409C4.61326 19.6327 4.11468 19.5241 3.60998 19.5222C3.10709 19.5251 2.61042 19.6337 2.15222 19.8409C1.70533 20.0432 1.22052 20.1481 0.72998 20.1486V18.0385C1.21977 18.0358 1.7038 17.9327 2.15222 17.7357C2.60919 17.5241 3.10644 17.4138 3.60998 17.4121C4.13126 17.4121 4.63094 17.5321 5.07302 17.7357C5.51891 17.9327 6.00059 18.0358 6.48806 18.0385C6.97809 18.0365 7.46243 17.9334 7.91078 17.7357C8.36943 17.5236 8.86852 17.4132 9.37382 17.4121C9.89126 17.4121 10.3885 17.5321 10.8311 17.7357C11.2789 17.9329 11.7626 18.036 12.2519 18.0385C12.7402 18.036 13.2227 17.9329 13.6693 17.7357C14.1282 17.5236 14.6274 17.4133 15.1329 17.4121C15.6479 17.4121 16.1471 17.5321 16.5959 17.7357C17.0255 17.9243 17.5079 18.0385 18.0119 18.0385C18.5002 18.0364 18.9828 17.9333 19.4293 17.7357C19.8881 17.5233 20.3874 17.4129 20.8929 17.4121C21.4141 17.4121 21.9129 17.5321 22.353 17.7357C22.7994 17.9332 23.2818 18.0363 23.77 18.0385V20.1486ZM20.433 14.1793C21.946 14.1793 23.1738 12.9553 23.1738 11.4539C23.1738 9.95101 21.946 8.73325 20.433 8.73325C18.9177 8.73325 17.6913 9.95149 17.6913 11.4539C17.6913 12.9553 18.8087 14.1793 20.433 14.1793ZM4.46966 15.7115C4.6823 15.7619 4.88294 15.8353 5.0735 15.9208C5.51856 16.1214 6.00083 16.2262 6.48902 16.2285C6.99302 16.2285 7.48214 16.1142 7.91126 15.9208C8.37061 15.7107 8.8692 15.6001 9.3743 15.5963C9.89174 15.5963 10.39 15.7221 10.8316 15.9208C11.2784 16.1216 11.7625 16.2264 12.2524 16.2285C12.7516 16.2285 13.2402 16.1142 13.6693 15.9208C14.1289 15.7107 14.6276 15.6001 15.1329 15.5963C15.6484 15.5963 16.1481 15.7221 16.5959 15.9208C17.026 16.1137 17.5079 16.2285 18.0129 16.2285C18.3801 16.2285 18.7338 16.1665 19.0674 16.0624L14.4954 7.87549L19.8133 6.91213C20.5938 6.76429 21.1602 6.15565 21.1602 5.37661C21.1602 4.51741 20.4561 3.82861 19.5945 3.82861L19.4169 3.83389L11.2021 5.31805C10.6257 5.44909 9.86198 6.28717 10.2969 7.31533L10.3669 7.48093L12.5106 11.3224L4.46966 15.7115Z" fill="#006EFF"/>
</g>
<defs>
<clipPath id="clip0_9_8519">
<rect width="24" height="24" fill="white" transform="translate(0.25 0.94873)"/>
</clipPath>
</defs>
</svg>
