<svg width="31" height="22" viewBox="0 0 31 22" fill="none" xmlns="http://www.w3.org/2000/svg">
<g clip-path="url(#clip0_9_8536)">
<path d="M15.5811 0.948754H15.5417C10.1255 0.948754 5.19925 3.04875 1.533 6.47788L1.54438 6.46738L0.875 7.09126L4.25425 10.439L4.88425 9.86151C7.68513 7.2785 11.4415 5.69388 15.568 5.69388C19.6945 5.69388 23.4509 7.27763 26.2623 9.87113L26.2518 9.86151L26.8818 10.439L30.261 7.09126L29.5916 6.46738C25.8056 2.91463 20.8063 0.940787 15.6144 0.948754H15.5785H15.5811Z" fill="#006EFF"/>
<path d="M24.8544 11.4748C22.3234 9.17211 19.023 7.89876 15.6012 7.90481H15.0115L15.0054 7.91793C11.7718 8.04451 8.68642 9.30741 6.29212 11.4844L6.30349 11.4739L5.61487 12.0978L9.02124 15.4709L9.65124 14.9197C11.2184 13.5144 13.3009 12.6561 15.5837 12.6561C17.8666 12.6561 19.9491 13.5153 21.525 14.9276L21.5162 14.9206L22.1462 15.4718L25.5526 12.0996L24.8544 11.4748Z" fill="#006EFF"/>
<path d="M15.5881 21.9489L20.3788 17.2108L19.6175 16.5869C18.4679 15.6815 17.0328 15.216 15.5706 15.2744H15.582H15.5243C14.0838 15.272 12.6815 15.7372 11.5281 16.6001L11.5456 16.5878L10.7914 17.2117L11.487 17.9003L14.952 21.3259L15.5881 21.9489Z" fill="#006EFF"/>
</g>
<defs>
<clipPath id="clip0_9_8536">
<rect width="29.75" height="21" fill="white" transform="translate(0.875 0.94873)"/>
</clipPath>
</defs>
</svg>
